<?xml version="1.0" encoding="UTF-8"?>
<svg id="Layer_1" data-name="Layer 1" xmlns="http://www.w3.org/2000/svg" viewBox="0 0 1024 760.4">
  <path d="M551.2,260.8c-43.3-52.9-96.8-79.3-160.5-79.3s-54,5.1-77.9,15.3c-23.9,10.2-44.4,24-61.6,41.6-17.2,17.5-30.7,38.4-40.6,62.6-9.9,24.2-14.8,50.3-14.8,78.3s4.9,55.1,14.8,79.3c9.9,24.2,23.6,45.2,41.1,63,17.5,17.8,38,31.8,61.6,42,23.6,10.2,49,15.3,76.4,15.3,59.9,0,113.7-25.5,161.4-76.4v221.6l-19.1,6.7c-28.7,10.2-55.4,17.7-80.2,22.4-24.8,4.8-49.4,7.2-73.6,7.2-49.7,0-97.3-9.4-142.8-28.2-45.5-18.8-85.7-45.2-120.4-79.3-34.7-34.1-62.6-74.5-83.6-121.3C10.5,484.8,0,433.7,0,378.3s10.3-106.2,31-152.4c20.7-46.2,48.4-86,83.1-119.4,34.7-33.4,75-59.5,120.8-78.3C280.8,9.4,328.9,0,379.2,0s56.8,3,84.5,9.1c27.7,6.1,56.8,15.4,87.4,28.2v223.5Z" fill="#e21f26"/>
  <path d="M1024,20.1v499.6c0,21-1.1,40.4-3.3,58.3-2.2,17.8-5.9,33.1-11,45.9-8.3,20.4-19.6,39-33.9,55.9-14.3,16.9-31,31.2-50.1,43-19.1,11.8-40.3,21-63.5,27.7-23.3,6.7-47.6,10-73.1,10-77.1,0-139.8-35.3-188.2-106l122.3-125.1c3.2,21.7,10.2,38.8,21,51.6,10.8,12.7,24.2,19.1,40.1,19.1,35,0,52.5-27.7,52.5-83.1V20.1h187.2Z" fill="#e21f26"/>
</svg>